<?xml version="1.0" standalone="no"?>
<!DOCTYPE svg PUBLIC "-//W3C//DTD SVG 20010904//EN"
 "http://www.w3.org/TR/2001/REC-SVG-20010904/DTD/svg10.dtd">
<svg version="1.0" xmlns="http://www.w3.org/2000/svg"
 width="498.000000pt" height="501.000000pt" viewBox="0 0 498.000000 501.000000"
 preserveAspectRatio="xMidYMid meet">

<g transform="translate(0.000000,501.000000) scale(0.100000,-0.100000)"
fill="#000000" stroke="none">
<path d="M1205 4989 c-231 -18 -462 -116 -650 -273 -379 -317 -576 -840 -544
-1446 30 -574 393 -1259 1053 -1990 59 -64 530 -535 601 -600 33 -30 96 -86
140 -124 44 -39 85 -75 90 -80 54 -58 575 -466 595 -466 16 0 206 145 470 361
163 132 469 410 624 565 759 762 1189 1411 1336 2016 45 185 53 275 47 513 -5
238 -25 365 -83 555 -78 250 -203 462 -373 630 -122 121 -237 201 -372 259
-154 65 -233 82 -409 88 -174 6 -283 -5 -405 -41 -280 -83 -513 -225 -753
-458 l-82 -81 -83 79 c-116 112 -192 173 -304 246 -297 194 -585 273 -898 247z
m333 -239 c148 -31 322 -108 459 -201 151 -103 261 -203 396 -359 49 -58 93
-105 97 -105 5 0 36 34 70 75 86 104 193 212 270 273 36 28 67 54 70 58 10 11
134 92 194 126 34 19 105 53 158 74 410 166 821 82 1118 -228 255 -265 380
-612 382 -1058 0 -216 -22 -356 -89 -555 -59 -177 -163 -399 -260 -558 -9 -15
-26 -43 -38 -62 -214 -349 -502 -699 -904 -1100 -293 -292 -495 -472 -889
-794 l-84 -68 -31 29 c-18 16 -68 58 -112 93 -44 35 -89 72 -100 82 -11 9 -67
56 -125 104 -386 321 -862 798 -1135 1139 -436 543 -665 986 -746 1445 -16 94
-13 416 5 520 27 146 35 182 67 280 65 197 162 361 297 502 252 263 578 364
930 288z"/>
</g>
</svg>
